<?xml version="1.0" encoding="UTF-8" standalone="no"?>
<svg
   xmlns:dc="http://purl.org/dc/elements/1.1/"
   xmlns:cc="http://creativecommons.org/ns#"
   xmlns:rdf="http://www.w3.org/1999/02/22-rdf-syntax-ns#"
   xmlns:svg="http://www.w3.org/2000/svg"
   xmlns="http://www.w3.org/2000/svg"
   xmlns:sodipodi="http://sodipodi.sourceforge.net/DTD/sodipodi-0.dtd"
   xmlns:inkscape="http://www.inkscape.org/namespaces/inkscape"
   height="512px"
   id="Layer_1"
   style="enable-background:new 0 0 512 512;"
   version="1.1"
   viewBox="0 0 512 512"
   width="512px"
   xml:space="preserve"
   sodipodi:docname="header__contact-info__image_birth-date.svg"
   inkscape:version="0.92.2 (30a58d1, 2017-08-07)"><metadata
     id="metadata1027"><rdf:RDF><cc:Work
         rdf:about=""><dc:format>image/svg+xml</dc:format><dc:type
           rdf:resource="http://purl.org/dc/dcmitype/StillImage" /></cc:Work></rdf:RDF></metadata><defs
     id="defs1025" /><sodipodi:namedview
     pagecolor="#ffffff"
     bordercolor="#666666"
     borderopacity="1"
     objecttolerance="10"
     gridtolerance="10"
     guidetolerance="10"
     inkscape:pageopacity="0"
     inkscape:pageshadow="2"
     inkscape:window-width="1366"
     inkscape:window-height="705"
     id="namedview1023"
     showgrid="false"
     inkscape:zoom="0.4609375"
     inkscape:cx="256"
     inkscape:cy="256"
     inkscape:window-x="0"
     inkscape:window-y="24"
     inkscape:window-maximized="1"
     inkscape:current-layer="Layer_1" /><path
     d="M448,448c0,0,0-26.4-2.2-40.2c-1.8-10.9-16.9-25.3-81.1-48.9c-63.2-23.2-59.3-11.9-59.3-54.6c0-27.7,14.1-11.6,23.1-64.2  c3.5-20.7,6.3-6.9,13.9-40.1c4-17.4-2.7-18.7-1.9-27c0.8-8.3,1.6-15.7,3.1-32.7C345.4,119.3,325.9,64,256,64  c-69.9,0-89.4,55.3-87.5,76.4c1.5,16.9,2.3,24.4,3.1,32.7c0.8,8.3-5.9,9.6-1.9,27c7.6,33.1,10.4,19.3,13.9,40.1  c9,52.6,23.1,36.5,23.1,64.2c0,42.8,3.9,31.5-59.3,54.6c-64.2,23.5-79.4,38-81.1,48.9C64,421.6,64,448,64,448h192H448z"
     id="path1020"
     style="fill:#a2a2a2;fill-opacity:1" /></svg>