<?xml version="1.0" encoding="UTF-8" standalone="no"?>
<svg
   xmlns:dc="http://purl.org/dc/elements/1.1/"
   xmlns:cc="http://creativecommons.org/ns#"
   xmlns:rdf="http://www.w3.org/1999/02/22-rdf-syntax-ns#"
   xmlns:svg="http://www.w3.org/2000/svg"
   xmlns="http://www.w3.org/2000/svg"
   xmlns:sodipodi="http://sodipodi.sourceforge.net/DTD/sodipodi-0.dtd"
   xmlns:inkscape="http://www.inkscape.org/namespaces/inkscape"
   enable-background="new 0 0 500 500"
   height="500px"
   id="Layer_1"
   version="1.1"
   viewBox="0 0 500 500"
   width="500px"
   xml:space="preserve"
   sodipodi:docname="if_54_111138.svg"
   inkscape:version="0.92.2 (30a58d1, 2017-08-07)"><metadata
     id="metadata9"><rdf:RDF><cc:Work
         rdf:about=""><dc:format>image/svg+xml</dc:format><dc:type
           rdf:resource="http://purl.org/dc/dcmitype/StillImage" /></cc:Work></rdf:RDF></metadata><defs
     id="defs7" /><sodipodi:namedview
     pagecolor="#ffffff"
     bordercolor="#666666"
     borderopacity="1"
     objecttolerance="10"
     gridtolerance="10"
     guidetolerance="10"
     inkscape:pageopacity="0"
     inkscape:pageshadow="2"
     inkscape:window-width="1366"
     inkscape:window-height="705"
     id="namedview5"
     showgrid="false"
     inkscape:zoom="0.472"
     inkscape:cx="-157.83898"
     inkscape:cy="250"
     inkscape:window-x="0"
     inkscape:window-y="24"
     inkscape:window-maximized="1"
     inkscape:current-layer="Layer_1" /><path
     clip-rule="evenodd"
     d="M227.787,249.5c0-12.536,10.177-22.713,22.713-22.713  c12.537,0,22.715,10.177,22.715,22.713c0,12.537-10.178,22.715-22.715,22.715C237.964,272.216,227.787,262.037,227.787,249.5z   M250.5,190.445c-32.615,0-59.056,26.44-59.056,59.055c0,32.615,26.441,59.056,59.056,59.056c32.614,0,59.056-26.441,59.056-59.056  C309.556,216.885,283.114,190.445,250.5,190.445z M97.501,292.933c3.452,12.261,8.358,23.893,14.533,34.697l-27.256,29.804  c-7.808,7.818-7.808,20.445,0,28.259l29.528,29.528c7.817,7.81,20.443,7.81,28.259,0l29.803-27.254  c10.807,6.174,22.438,11.08,34.701,14.529l2.547,40.525c0,11.08,8.906,19.987,19.989,19.987h41.791  c11.08,0,19.987-8.907,19.987-19.987l2.536-40.525c12.273-3.449,23.904-8.355,34.713-14.529l29.8,27.254  c7.817,7.81,20.446,7.81,28.26,0l29.528-29.528c7.81-7.813,7.81-20.44,0-28.259l-27.255-29.804  c6.174-10.805,11.08-22.437,14.53-34.697l40.524-2.549c11.08,0,19.987-8.906,19.987-19.986v-41.791  c0-11.086-8.907-19.991-19.987-19.991l-40.524-2.541c-3.45-12.268-8.356-23.898-14.53-34.709l27.255-29.799  c7.81-7.816,7.81-20.442,0-28.26l-29.528-29.528c-7.813-7.812-20.442-7.812-28.26,0l-29.8,27.256  c-10.809-6.174-22.439-11.081-34.713-14.533l-2.536-40.521c0-11.086-8.907-19.991-19.987-19.991h-41.791  c-11.083,0-19.989,8.905-19.989,19.991l-2.547,40.521c-12.263,3.452-23.894,8.358-34.701,14.533l-29.803-27.256  c-7.816-7.812-20.442-7.812-28.259,0l-29.528,29.528c-7.808,7.818-7.808,20.444,0,28.26l27.256,29.799  c-6.175,10.812-11.081,22.442-14.533,34.709l-40.521,2.541c-11.082,0-19.989,8.905-19.989,19.991v41.791  c0,11.08,8.907,19.986,19.989,19.986L97.501,292.933z M250.5,154.103c52.693,0,95.396,42.705,95.396,95.398  c0,52.694-42.702,95.396-95.396,95.396c-52.694,0-95.398-42.702-95.398-95.396C155.102,196.807,197.806,154.103,250.5,154.103z"
     fill="#010101"
     fill-rule="evenodd"
     id="path2"
     style="fill:#a2a2a2;fill-opacity:1" /><circle
     style="opacity:0.98999999;fill:#a2a2a2;fill-opacity:1;fill-rule:evenodd;stroke:none;stroke-width:0.80000001;stroke-linecap:square;stroke-linejoin:miter;stroke-miterlimit:4;stroke-dasharray:none;stroke-dashoffset:0;stroke-opacity:1;paint-order:markers stroke fill"
     id="path819"
     cx="257.41525"
     cy="251.05933"
     r="49.788136" /></svg>