<?xml version="1.0" encoding="UTF-8" standalone="no"?>
<!-- Created with Inkscape (http://www.inkscape.org/) -->

<svg
   xmlns:dc="http://purl.org/dc/elements/1.1/"
   xmlns:cc="http://creativecommons.org/ns#"
   xmlns:rdf="http://www.w3.org/1999/02/22-rdf-syntax-ns#"
   xmlns:svg="http://www.w3.org/2000/svg"
   xmlns="http://www.w3.org/2000/svg"
   xmlns:sodipodi="http://sodipodi.sourceforge.net/DTD/sodipodi-0.dtd"
   xmlns:inkscape="http://www.inkscape.org/namespaces/inkscape"
   width="10"
   height="20"
   viewBox="0 0 2.6458334 5.2916668"
   version="1.1"
   id="svg8"
   inkscape:version="0.92.2 (30a58d1, 2017-08-07)"
   sodipodi:docname="experience_images_arrow.svg">
  <defs
     id="defs2" />
  <sodipodi:namedview
     id="base"
     pagecolor="#ffffff"
     bordercolor="#666666"
     borderopacity="1.0"
     inkscape:pageopacity="0.0"
     inkscape:pageshadow="2"
     inkscape:zoom="11.2"
     inkscape:cx="13.355178"
     inkscape:cy="16.808203"
     inkscape:document-units="px"
     inkscape:current-layer="layer1"
     showgrid="false"
     units="px"
     inkscape:window-width="1366"
     inkscape:window-height="705"
     inkscape:window-x="0"
     inkscape:window-y="24"
     inkscape:window-maximized="1" />
  <metadata
     id="metadata5">
    <rdf:RDF>
      <cc:Work
         rdf:about="">
        <dc:format>image/svg+xml</dc:format>
        <dc:type
           rdf:resource="http://purl.org/dc/dcmitype/StillImage" />
        <dc:title></dc:title>
      </cc:Work>
    </rdf:RDF>
  </metadata>
  <g
     inkscape:label="Layer 1"
     inkscape:groupmode="layer"
     id="layer1"
     transform="translate(0,-291.70833)">
    <path
       style="opacity:0.98999999;fill:#f5f5f5;fill-opacity:1;fill-rule:evenodd;stroke:none;stroke-width:0.29223484;stroke-linecap:square;stroke-linejoin:miter;stroke-miterlimit:4;stroke-dasharray:none;stroke-dashoffset:0;stroke-opacity:1;paint-order:markers stroke fill"
       d="m 5.0143993,290.43132 h 3.9132535 3.9132532 c 0.0092,0 0.01751,0.004 0.02351,0.01 0.0059,0.006 0.0097,0.0144 0.0097,0.0236 l -4.9575543,3.91326 4.9575543,3.91325 c 0.0076,0.006 -0.0037,0.0175 -0.0097,0.0235 -0.0061,0.006 -0.01432,0.01 -0.02351,0.01 H 8.9276528 5.0143993 c -0.00921,0 -0.017508,-0.004 -0.023512,-0.01 -0.00601,-0.006 -0.00971,-0.0144 -0.00971,-0.0236 l -4.95755537,-3.91325 4.95755537,-3.91326 c 0.00758,-0.006 0.0037,-0.0175 0.00971,-0.0235 0.00601,-0.006 0.01431,-0.01 0.023512,-0.01 z"
       id="rect815"
       inkscape:connector-curvature="0"
       sodipodi:nodetypes="scssscssscssscsss" />
  </g>
</svg>
