<?xml version="1.0" encoding="UTF-8" standalone="no"?>
<!-- Created with Inkscape (http://www.inkscape.org/) -->

<svg
   xmlns:dc="http://purl.org/dc/elements/1.1/"
   xmlns:cc="http://creativecommons.org/ns#"
   xmlns:rdf="http://www.w3.org/1999/02/22-rdf-syntax-ns#"
   xmlns:svg="http://www.w3.org/2000/svg"
   xmlns="http://www.w3.org/2000/svg"
   xmlns:sodipodi="http://sodipodi.sourceforge.net/DTD/sodipodi-0.dtd"
   xmlns:inkscape="http://www.inkscape.org/namespaces/inkscape"
   width="850mm"
   height="500mm"
   viewBox="0 0 850 500"
   version="1.1"
   id="svg8"
   sodipodi:docname="logoOnlyLupa.svg"
   inkscape:version="0.92.1 15371">
  <defs
     id="defs2">
    <inkscape:path-effect
       effect="envelope"
       id="path-effect4808"
       is_visible="true"
       yy="true"
       xx="true"
       bendpath1="m 1542.9797,-1213.118 h 25.52"
       bendpath2="m 1568.4997,-1213.118 v 27.24"
       bendpath3="m 1542.9797,-1185.878 h 25.52"
       bendpath4="m 1542.9797,-1213.118 v 27.24" />
    <inkscape:path-effect
       effect="envelope"
       id="path-effect4806"
       is_visible="true"
       yy="true"
       xx="true"
       bendpath1="m 1513.1703,-1213.118 h 28.36"
       bendpath2="m 1541.5303,-1213.118 v 27.76"
       bendpath3="m 1513.1703,-1185.358 h 28.36"
       bendpath4="m 1513.1703,-1213.118 v 27.76" />
    <inkscape:path-effect
       effect="envelope"
       id="path-effect4804"
       is_visible="true"
       yy="true"
       xx="false"
       bendpath1="m 1487.7453,-1213.118 c 60.9363,-73.2011 118.0364,14.7775 114.0006,0"
       bendpath2="m 1601.7459,-1213.118 v 34.04"
       bendpath3="m 1487.7453,-1179.078 c 48.5103,62.9767 79.086,30.7782 114.0006,0"
       bendpath4="m 1487.7453,-1213.118 v 34.04"
       bendpath1-nodetypes="cc"
       bendpath3-nodetypes="cc" />
  </defs>
  <sodipodi:namedview
     id="base"
     pagecolor="#ffffff"
     bordercolor="#666666"
     borderopacity="1.0"
     inkscape:pageopacity="0.0"
     inkscape:pageshadow="2"
     inkscape:zoom="0.12374369"
     inkscape:cx="2602.5407"
     inkscape:cy="1618.5191"
     inkscape:document-units="px"
     inkscape:current-layer="layer1"
     showgrid="false"
     inkscape:window-width="1366"
     inkscape:window-height="705"
     inkscape:window-x="0"
     inkscape:window-y="24"
     inkscape:window-maximized="1" />
  <metadata
     id="metadata5">
    <rdf:RDF>
      <cc:Work
         rdf:about="">
        <dc:format>image/svg+xml</dc:format>
        <dc:type
           rdf:resource="http://purl.org/dc/dcmitype/StillImage" />
        <dc:title></dc:title>
      </cc:Work>
    </rdf:RDF>
  </metadata>
  <g
     inkscape:label="Layer 1"
     inkscape:groupmode="layer"
     id="layer1"
     transform="translate(0,203)">
    <g
       aria-label="LUPĄ"
       transform="matrix(3.4536815,0,0,3.4536815,-4731.5333,4191.1805)"
       style="font-style:normal;font-variant:normal;font-weight:bold;font-stretch:normal;font-size:40px;line-height:1.25;font-family:'URW Bookman L';-inkscape-font-specification:'URW Bookman L, Bold';font-variant-ligatures:normal;font-variant-caps:normal;font-variant-numeric:normal;font-feature-settings:normal;text-align:start;letter-spacing:0px;word-spacing:0px;writing-mode:lr-tb;text-anchor:start;fill:#ffffff;fill-opacity:1;stroke:none;stroke-width:6.19454956;stroke-miterlimit:4;stroke-dasharray:6.19454972, 6.19454972000000037;stroke-dashoffset:0"
       id="flowRoot4503"
       inkscape:path-effect="#path-effect4804">
      <path
         d="m 1518.3619,-1190.0368 c -0.6128,-1.2313 -1.2436,-2.4072 -1.8987,-3.5255 -2.3474,10.1597 -7.3296,12.622 -10.0525,10.9028 -0.8791,-0.555 -1.2809,-1.3734 -1.1577,-2.1734 0.1078,-0.5983 0.3776,-0.5861 1.3096,-4.2964 1.637,-6.5175 0.7272,-13.1223 -2.7295,-19.8143 -2.0481,-3.9651 -2.619,-4.8732 -0.9758,-6.6839 0.1839,-0.1974 0.3687,-0.395 0.5544,-0.5929 -1.1355,-1.8661 -2.4211,-3.7382 -3.8568,-5.6163 -3.959,3.4676 -7.638,7.2619 -11.0883,11.2185 1.594,1.0295 3.0226,2.0563 4.2859,3.0804 0.2234,-0.15 0.4472,-0.2984 0.6712,-0.4452 1.7984,-1.1515 3.0999,-0.9203 5.2762,2.0611 3.794,5.1974 4.704,10.33 2.7298,15.3976 -1.1338,2.9103 -2.2584,3.1587 -3.8753,2.357 -0.2076,-0.1054 -0.4153,-0.212 -0.623,-0.3198 -0.8215,0.9903 -1.8082,1.9778 -2.9603,2.9627 5.1711,4.8654 10.4941,9.7105 16.2926,13.9569 3.921,-5.5065 6.5383,-11.6666 8.0982,-18.4693 z"
         style="stroke-width:6.19454956;stroke-miterlimit:4;stroke-dasharray:6.19454972, 6.19454972000000037;stroke-dashoffset:0;fill:#ffffff"
         id="path4519"
         inkscape:connector-curvature="0"
         inkscape:original-d="m 1513.6653,-1195.398 -2.76,-1.48 c -2.72,4.84 -6.24,7.4 -10.2,7.4 -1.2,0 -2.04,-0.28 -2.28,-0.76 -0.16,-0.36 -0.16,-0.36 -0.16,-2.88 v -13.28 c 0,-2.56 0.48,-3.12 2.72,-3.36 l 0.8,-0.08 v -3.28 h -14.04 v 3.28 l 0.8,0.08 c 2.24,0.24 2.72,0.8 2.72,3.36 v 13.8 c 0,2.56 -0.48,3.12 -2.72,3.36 l -0.8,0.08 v 3.28 h 21.76 z" />
      <path
         d="m 1536.8633,-1219.2891 c -0.2048,-6.1775 -0.073,-8.3646 1.2593,-9.4132 0,0 0,0 0,0 0.2697,-0.2117 0.5876,-0.3709 0.9584,-0.4992 0.2571,-0.083 0.5153,-0.1647 0.7746,-0.2441 -0.016,-3.1995 -0.042,-6.3993 -0.076,-9.5994 -0.673,0.01 -1.3454,0.024 -2.0167,0.057 -1.832,0.09 -3.6612,0.2783 -5.4766,0.569 -1.5613,0.2482 -3.1112,0.572 -4.6457,0.9656 0.5946,3.0811 1.1216,6.1579 1.5812,9.2302 0.2687,0.018 0.5368,0.038 0.8044,0.06 2.2159,0.2296 2.9489,1.8561 3.4658,9.167 0.721,10.1993 0.9102,20.3658 0.5675,30.4996 -0.2589,7.6559 -0.9794,11.649 -2.1669,14.0373 -0.9413,1.8564 -2.178,2.655 -3.4113,2.2761 -0.577,-0.1773 -1.0602,-0.5862 -1.4462,-1.2163 -0.5671,-0.8991 -0.9262,-2.2308 -1.1205,-4.0097 -0.3968,-3.5724 -0.1391,-5.6286 0.1806,-12.3563 0.4322,-9.0971 -0.1227,-18.2673 -1.6647,-27.5105 -1.127,-6.7556 -1.2988,-8.3226 0.8328,-9.6777 0.1333,-0.082 0.267,-0.1627 0.4009,-0.2436 0.1085,-0.067 0.2171,-0.1331 0.3259,-0.1992 -0.5754,-2.9911 -1.233,-5.9879 -1.9729,-8.9906 -0.1285,0.043 -0.2569,0.086 -0.3851,0.1295 -4.1901,1.4176 -8.2198,3.3199 -12.0105,5.576 -0.6248,0.3717 -1.2433,0.7526 -1.8557,1.1423 1.1927,2.4733 2.2586,4.9391 3.1976,7.3973 0.2577,-0.063 0.5157,-0.1249 0.7741,-0.1842 0.4322,-0.091 0.8154,-0.1172 1.1648,-0.053 0,0 0,0 0,0 1.3531,0.2506 2.3709,2.0095 3.5242,6.8926 2.1208,8.9789 2.8424,17.8647 2.1649,26.6574 -0.7516,9.7544 -1.5464,11.146 -1.0684,16.7093 0.4259,4.6563 2.2264,8.8897 5.2716,10.553 0,0 0,0 0,0 0.1666,0.092 0.3362,0.1752 0.5086,0.2491 2.6659,1.1426 5.5673,-0.01 7.5849,-3.0933 0.3044,-0.4677 0.5877,-0.9768 0.8481,-1.525 2.0032,-4.2483 2.9254,-10.044 3.2496,-22.9096 0.2554,-10.1323 0.2145,-20.2799 -0.1224,-30.4429 z"
         style="stroke-width:6.19454956;stroke-miterlimit:4;stroke-dasharray:6.19454972, 6.19454972000000037;stroke-dashoffset:0;fill:#ffffff"
         id="path4521"
         inkscape:connector-curvature="0"
         inkscape:original-d="m 1538.0103,-1206.398 c 0,-2.56 0.48,-3.12 2.72,-3.36 l 0.8,-0.08 v -3.28 h -10.96 v 3.28 l 0.8,0.08 c 2.24,0.24 2.72,0.8 2.72,3.36 v 10.68 c 0,2.72 -0.44,4.08 -1.64,5.04 -0.92,0.72 -2.24,1.12 -3.72,1.12 -1.68,0 -2.96,-0.52 -3.84,-1.6 -0.92,-1.12 -1.2,-2.24 -1.2,-4.68 v -10.56 c 0,-2.56 0.48,-3.12 2.72,-3.36 l 0.8,-0.08 v -3.28 h -14.04 v 3.28 l 0.8,0.08 c 2.24,0.24 2.72,0.8 2.72,3.36 v 11.32 c 0,3.68 0.48,5.28 2.08,6.84 1.84,1.76 5.16,2.88 8.64,2.88 3.28,0 6.4,-0.96 8.16,-2.52 1.88,-1.68 2.44,-3.52 2.44,-8.04 z"
         inkscape:path-effect="#path-effect4806" />
      <path
         d="m 1548.7273,-1191.5409 c 1.0028,-0.01 2.0139,-0.027 3.0332,-0.06 4.1809,-0.1366 6.9139,-4.1083 8.8749,-10.3486 0.8503,-2.7036 1.6054,-5.942 2.3774,-9.7571 0.726,-3.588 1.3136,-7.1374 1.5338,-10.2951 0.1717,-2.4591 0.1243,-4.7198 -0.2507,-6.6401 -0.6666,-3.9131 -2.4938,-6.229 -7.0335,-7.6582 -2.0288,-0.6387 -4.0833,-1.1814 -6.1591,-1.6136 -0.1736,-0.036 -0.3474,-0.072 -0.5213,-0.1061 -3.0268,-0.5986 -6.1051,-0.9423 -9.1808,-1.0131 -0.043,3.2002 -0.087,6.4004 -0.1313,9.6006 0.2595,0.084 0.5184,0.1703 0.7766,0.2585 2.2066,0.8016 2.4871,2.5234 2.1378,9.9678 -0.6291,13.4102 -0.9281,26.8233 -0.897,40.2394 0.017,7.4472 -0.2974,9.1468 -2.2636,9.8381 -0.2297,0.075 -0.4597,0.1485 -0.6898,0.2198 -0.054,3.1995 -0.1096,6.399 -0.1656,9.5984 2.6434,0.079 5.3248,-0.1318 7.9479,-0.6051 0.1522,-0.026 0.3042,-0.053 0.4561,-0.081 1.7181,-0.3139 3.4218,-0.7386 5.1128,-1.2542 -0.4464,-2.9972 -0.8234,-5.9967 -1.131,-8.9985 -0.2422,-0.017 -0.484,-0.037 -0.7252,-0.058 -1.98,-0.2199 -2.6469,-1.8075 -2.9208,-9.0191 -0.1545,-4.0693 -0.2148,-8.1409 -0.1808,-12.2147 z m 1.6233,-27.192 c 0.4467,-4.0274 0.702,-5.3833 1.0308,-6.185 0.4377,-1.1932 1.4815,-1.7768 2.6491,-1.4804 2.7634,0.7016 3.2796,6.0607 2.2619,12.9273 -1.1359,7.6641 -3.1218,12.1557 -6.2274,11.9316 -0.2889,-0.021 -0.5494,-0.039 -1.051,-0.304 0.2661,-5.6255 0.7116,-11.2554 1.3366,-16.8895 z"
         style="stroke-width:6.19454956;stroke-miterlimit:4;stroke-dasharray:6.19454972, 6.19454972000000037;stroke-dashoffset:0;fill:#ffffff"
         id="path4523"
         inkscape:connector-curvature="0"
         inkscape:original-d="m 1553.4997,-1196.918 h 3.8 c 7.32,0 11.2,-2.8 11.2,-8.08 0,-2.64 -1.12,-5 -3.12,-6.4 -1.72,-1.28 -3.84,-1.72 -8.04,-1.72 h -14.36 v 3.28 l 0.8,0.08 c 2.24,0.24 2.72,0.8 2.72,3.36 v 13.8 c 0,2.56 -0.48,3.12 -2.72,3.36 l -0.8,0.08 v 3.28 h 14.04 v -3.28 l -0.8,-0.08 c -2.24,-0.24 -2.72,-0.8 -2.72,-3.36 z m 0,-9.6 c 0,-1.44 0.04,-1.88 0.28,-2.2 0.28,-0.44 1.24,-0.72 2.44,-0.72 2.72,0 4.6,1.76 4.6,4.36 0,2.92 -2.16,4.6 -6,4.6 -0.36,0 -0.68,0 -1.32,-0.08 z"
         inkscape:path-effect="#path-effect4808" />
      <path
         d="m 1586.3924,-1220.4414 c -1.4353,-1.0854 -2.8874,-2.1467 -4.3621,-3.1755 -0.4526,-0.3157 -0.9072,-0.6286 -1.3639,-0.9386 -6.1655,6.7344 -10.4258,14.3054 -13.0427,22.6537 -1.5818,5.0123 -2.5567,10.2798 -3.0045,15.8192 -0.7315,8.4799 -0.4823,10.7731 -2.5424,12.6038 -0.093,0.071 -0.2317,0.1778 -0.3248,0.2492 0,-0 -0.2098,0.1615 -0.2052,0.158 0.4747,2.668 1.0526,5.3324 1.7336,7.993 0.077,-0.037 0.1534,-0.074 0.23,-0.1108 2.4895,-1.2006 4.9512,-2.51 7.3936,-3.8575 1.228,-0.6889 2.447,-1.3918 3.6598,-2.1065 -0.8385,-2.1384 -1.5505,-4.2802 -2.1361,-6.4253 -0.2002,0.031 -0.4002,0.062 -0.6001,0.091 -2.0259,0.2779 -2.9352,-0.3016 -3.2469,-1.9084 -0.1093,-0.5629 -0.246,-2.107 -0.2103,-3.1376 0.01,-2.5207 0.1412,-4.9862 0.4096,-7.3961 1.2165,-0.1771 2.4304,-0.3555 3.6439,-0.5351 1.2109,-0.1832 2.423,-0.361 3.6403,-0.534 0.4435,1.8617 1.0332,3.6606 1.7728,5.3978 0.4781,1.0655 0.9485,2.1628 1.0934,2.6465 0.3446,1.1507 -0.051,2.0061 -1.4136,2.874 -0.2736,0.179 -0.5472,0.3591 -0.8207,0.5401 0.6154,1.9174 1.3632,3.8326 2.2436,5.7457 2.6901,-1.653 5.3702,-3.3351 8.0752,-5.0213 0.7945,-0.4978 1.6024,-0.9857 2.4258,-1.464 -0.11,2.0264 0.4521,3.7578 2.1005,5.6384 2.2415,2.5574 5.0592,3.095 6.7834,1.4241 0.038,-0.037 0.075,-0.074 0.1108,-0.1113 0.9486,-0.9562 1.2084,-2.2136 1.118,-3.4528 0,0 0,0 0,0 -0.031,-0.4699 -0.1333,-0.9342 -0.1205,-1.3357 0,0 0,0 0,0 0.01,-0.1474 0.077,-0.293 0.261,-0.4549 0.1316,-0.093 0.2934,-0.2292 0.4906,-0.4266 -0.2293,0.063 -0.4771,0.093 -0.7364,0.064 -0.4311,-0.054 -0.8384,-0.1315 -1.1396,-0.249 0,0 0,0 0,0 -0.3235,-0.111 -0.6509,-0.2286 -0.9709,-0.3494 -0.2292,0.1691 -0.3301,0.3648 -0.3766,0.5451 0,0 0,0 0,0 -0.2806,0.797 -0.4511,1.1567 -0.976,1.5377 -0.658,0.4778 -1.3996,0.4397 -2.2172,-0.2027 -0.1853,-0.1454 -0.3724,-0.3206 -0.5591,-0.5246 -0.2097,-0.2292 -0.3898,-0.4553 -0.5422,-0.6809 -0.5909,-0.8697 -0.8479,-1.8584 -0.5691,-2.863 -0.9188,-1.1749 -1.7006,-2.3526 -2.3455,-3.5332 -0.2577,0.022 -0.5006,0.052 -0.7286,0.091 -0.2516,0.028 -0.4719,0.059 -0.6623,0.086 0,0 0,0 0,0 -1.538,0.1206 -2.9775,-0.4332 -4.8365,-4.306 -0.4476,-0.9032 -0.8286,-1.8344 -1.1434,-2.794 -2.4949,-7.5807 -0.9778,-16.931 4.0113,-28.2639 z m -16.405,23.5344 c 1.2526,-5.1638 3.2135,-10.0104 5.9463,-14.5267 0.022,-0.037 0.045,-0.074 0.067,-0.1111 -1.0142,5.2778 -1.3485,10.1953 -0.9341,14.7709 -0.8414,-0.028 -1.6813,-0.053 -2.5211,-0.072 -0.852,-0.022 -1.7046,-0.042 -2.5584,-0.061 z"
         style="stroke-width:6.19454956;stroke-miterlimit:4;stroke-dasharray:6.19454972, 6.19454972000000037;stroke-dashoffset:0;fill:#ffffff"
         id="path4525"
         inkscape:connector-curvature="0"
         inkscape:original-d="m 1586.6659,-1213.118 h -6.2 l -7.92,19 c -1.52,3.52 -2.44,4.52 -4.68,4.88 l -0.64,0.08 v 3.28 h 12.36 v -3.28 l -0.64,-0.08 c -2.16,-0.28 -2.96,-0.68 -2.96,-1.44 0,-0.24 0.16,-1 0.36,-1.44 l 1.28,-3.44 h 8.6 l 1.2,3.4 c 0.28,0.72 0.44,1.4 0.44,1.72 0,0.72 -0.72,1.08 -2.36,1.2 l -1,0.08 v 3.28 h 11.8 c -1.2,1.16 -1.68,2.16 -1.68,3.64 0,1.92 1.2,3.16 3.08,3.16 1.76,0 3.24,-0.92 4.04,-2.52 l -0.64,-1.2 c -0.96,0.68 -1.4,0.88 -2.04,0.88 -0.84,0 -1.28,-0.48 -1.28,-1.44 0,-1 0.36,-1.72 1.32,-2.52 v -3.28 l -0.64,-0.08 c -2.24,-0.4 -2.6,-0.8 -3.96,-4.36 z m -7.76,14.16 3.04,-7.8 2.96,7.8 z" />
    </g>
  </g>
</svg>
