<?xml version="1.0" encoding="UTF-8" standalone="no"?>
<svg
   xmlns:dc="http://purl.org/dc/elements/1.1/"
   xmlns:cc="http://creativecommons.org/ns#"
   xmlns:rdf="http://www.w3.org/1999/02/22-rdf-syntax-ns#"
   xmlns:svg="http://www.w3.org/2000/svg"
   xmlns="http://www.w3.org/2000/svg"
   xmlns:sodipodi="http://sodipodi.sourceforge.net/DTD/sodipodi-0.dtd"
   xmlns:inkscape="http://www.inkscape.org/namespaces/inkscape"
   height="32px"
   id="Layer_1"
   version="1.1"
   viewBox="0 0 32 32"
   width="32px"
   xml:space="preserve"
   sodipodi:docname="header__contact-info__image_phone.svg"
   style="enable-background:new 0 0 32 32;"
   inkscape:version="0.92.2 (30a58d1, 2017-08-07)"><metadata
     id="metadata11"><rdf:RDF><cc:Work
         rdf:about=""><dc:format>image/svg+xml</dc:format><dc:type
           rdf:resource="http://purl.org/dc/dcmitype/StillImage" /><dc:title /></cc:Work></rdf:RDF></metadata><defs
     id="defs9" /><sodipodi:namedview
     pagecolor="#ffffff"
     bordercolor="#666666"
     borderopacity="1"
     objecttolerance="10"
     gridtolerance="10"
     guidetolerance="10"
     inkscape:pageopacity="0"
     inkscape:pageshadow="2"
     inkscape:window-width="1366"
     inkscape:window-height="705"
     id="namedview7"
     showgrid="false"
     inkscape:zoom="7.375"
     inkscape:cx="-10.101695"
     inkscape:cy="16"
     inkscape:window-x="0"
     inkscape:window-y="24"
     inkscape:window-maximized="1"
     inkscape:current-layer="Layer_1" /><g
     transform="matrix(-0.59542319,-0.59542319,0.59542319,-0.59542319,185.24459,-250.69034)"
     id="g4"
     style="fill:#a2a2a2;fill-opacity:1"><path
       d="m -65.224,-359.142 -0.147,-0.445 c -0.353,-1.045 -1.504,-2.135 -2.563,-2.422 l -3.918,-1.07 c -1.063,-0.289 -2.578,0.1 -3.354,0.877 l -1.418,1.418 c -5.153,-1.393 -9.194,-5.434 -10.586,-10.586 l 1.418,-1.418 c 0.777,-0.777 1.166,-2.291 0.878,-3.354 l -1.068,-3.92 c -0.289,-1.063 -1.381,-2.214 -2.424,-2.563 l -0.447,-0.15 c -1.045,-0.348 -2.535,0.004 -3.313,0.781 l -2.12,2.123 c -0.38,0.377 -0.621,1.455 -0.621,1.459 -0.074,6.734 2.565,13.225 7.33,17.986 4.752,4.752 11.216,7.389 17.931,7.332 0.035,0 1.145,-0.238 1.523,-0.615 l 2.12,-2.121 c 0.775,-0.774 1.128,-2.267 0.779,-3.312 z"
       id="path2"
       inkscape:connector-curvature="0"
       style="fill:#a2a2a2;fill-opacity:1" /></g></svg>