<?xml version="1.0" encoding="UTF-8" standalone="no"?>
<svg
   xmlns:dc="http://purl.org/dc/elements/1.1/"
   xmlns:cc="http://creativecommons.org/ns#"
   xmlns:rdf="http://www.w3.org/1999/02/22-rdf-syntax-ns#"
   xmlns:svg="http://www.w3.org/2000/svg"
   xmlns="http://www.w3.org/2000/svg"
   xmlns:sodipodi="http://sodipodi.sourceforge.net/DTD/sodipodi-0.dtd"
   xmlns:inkscape="http://www.inkscape.org/namespaces/inkscape"
   height="32px"
   id="Layer_1"
   version="1.1"
   viewBox="0 0 32 32"
   width="32px"
   xml:space="preserve"
   sodipodi:docname="if_suitcase.svg"
   style="enable-background:new 0 0 32 32;"
   inkscape:version="0.92.2 (30a58d1, 2017-08-07)"><metadata
     id="metadata11"><rdf:RDF><cc:Work
         rdf:about=""><dc:format>image/svg+xml</dc:format><dc:type
           rdf:resource="http://purl.org/dc/dcmitype/StillImage" /><dc:title /></cc:Work></rdf:RDF></metadata><defs
     id="defs9" /><sodipodi:namedview
     pagecolor="#ffffff"
     bordercolor="#666666"
     borderopacity="1"
     objecttolerance="10"
     gridtolerance="10"
     guidetolerance="10"
     inkscape:pageopacity="0"
     inkscape:pageshadow="2"
     inkscape:window-width="1366"
     inkscape:window-height="705"
     id="namedview7"
     showgrid="false"
     inkscape:zoom="10.429825"
     inkscape:cx="-1.5494085"
     inkscape:cy="16.029227"
     inkscape:window-x="0"
     inkscape:window-y="24"
     inkscape:window-maximized="1"
     inkscape:current-layer="Layer_1" /><path
     style="opacity:0.98999999;fill:#000000;fill-opacity:1;fill-rule:evenodd;stroke:none;stroke-width:1.03829753;stroke-linecap:square;stroke-linejoin:miter;stroke-miterlimit:4;stroke-dasharray:none;stroke-dashoffset:0;stroke-opacity:1;paint-order:markers stroke fill"
     d="m 46.121245,-5.1525424 c -0.687335,0 -1.239062,0.5537125 -1.239062,1.2410478 V 26.691751 c 0,0.687336 0.551727,1.241048 1.239062,1.241048 h 2.069076 V -5.1525424 Z m 4.275162,0 V 27.932799 h 26.328085 c 0.687334,0 1.241047,-0.553712 1.241047,-1.241048 V -3.9114946 c 0,-0.6873353 -0.553713,-1.2410478 -1.241047,-1.2410478 H 71.204311 V 14.765778 l -2.821646,-2.482095 -2.823632,2.482095 V -5.1525424 Z"
     id="rect818"
     inkscape:connector-curvature="0" /><rect
     style="opacity:0.98999999;fill:#000000;fill-opacity:1;fill-rule:evenodd;stroke:none;stroke-width:0.80000001;stroke-linecap:square;stroke-linejoin:miter;stroke-miterlimit:4;stroke-dasharray:none;stroke-dashoffset:0;stroke-opacity:1;paint-order:markers stroke fill"
     id="rect856"
     width="6.237288"
     height="27.118645"
     x="43.932205"
     y="48.271187" /><rect
     style="opacity:0.98999999;fill:#a2a2a2;fill-opacity:1;fill-rule:evenodd;stroke:none;stroke-width:0.95078385;stroke-linecap:square;stroke-linejoin:miter;stroke-miterlimit:4;stroke-dasharray:none;stroke-dashoffset:0;stroke-opacity:1;paint-order:markers stroke fill"
     id="rect858"
     width="32.169167"
     height="20.678028"
     x="-0.092038095"
     y="11.59804"
     rx="1.7258199"
     ry="1.7258199" /><path
     style="opacity:0.98999999;fill:#a2a2a2;fill-opacity:1;fill-rule:evenodd;stroke:none;stroke-width:0.58965534;stroke-linecap:square;stroke-linejoin:miter;stroke-miterlimit:4;stroke-dasharray:none;stroke-dashoffset:0;stroke-opacity:1;paint-order:markers stroke fill"
     d="M 8.4765625 0.27148438 C 7.7860428 0.27148437 7.2304688 0.94921089 7.2304688 1.7910156 L 7.2304688 13.15625 C 7.2304687 13.998054 7.7860428 14.675781 8.4765625 14.675781 L 10.404297 14.675781 C 10.385084 14.58205 10.375 14.484344 10.375 14.384766 L 10.375 5.0039062 C 10.375 4.212561 11.011389 3.5742188 11.802734 3.5742188 L 21.421875 3.5742188 C 22.21322 3.5742188 22.851563 4.212561 22.851562 5.0039062 L 22.851562 14.384766 C 22.851562 14.484341 22.841478 14.582053 22.822266 14.675781 L 24.365234 14.675781 C 25.055754 14.675781 25.611328 13.998054 25.611328 13.15625 L 25.611328 1.7910156 C 25.611328 0.9492109 25.055754 0.27148438 24.365234 0.27148438 L 8.4765625 0.27148438 z "
     id="rect862" /><rect
     ry="1.7258199"
     rx="1.7258199"
     y="11.59804"
     x="-0.092038095"
     height="20.678028"
     width="32.169167"
     id="rect873"
     style="opacity:0.98999999;fill:#a2a2a2;fill-opacity:1;fill-rule:evenodd;stroke:none;stroke-width:0.95078385;stroke-linecap:square;stroke-linejoin:miter;stroke-miterlimit:4;stroke-dasharray:none;stroke-dashoffset:0;stroke-opacity:1;paint-order:markers stroke fill" /></svg>